<?xml version="1.0" encoding="utf-8"?>
<!-- Generator: Adobe Illustrator 24.1.1, SVG Export Plug-In . SVG Version: 6.00 Build 0)  -->
<svg version="1.1" xmlns="http://www.w3.org/2000/svg" xmlns:xlink="http://www.w3.org/1999/xlink" x="0px" y="0px"
	 viewBox="0 0 256 256" style="enable-background:new 0 0 256 256;" xml:space="preserve">
<style type="text/css">
	.st0{fill:#386B95;}
	.st1{fill:#FFFFFF;}
	.st2{fill:#ED1C24;}
	.st3{fill:#FFE0CC;}
	.st4{fill:#FFA88F;}
	.st5{fill:none;stroke:#FFA88F;stroke-width:6;stroke-linecap:round;stroke-miterlimit:10;}
	.st6{fill:none;stroke:#BAA1A9;stroke-width:10;stroke-linecap:round;stroke-miterlimit:10;}
	.st7{fill:#52362D;}
	.st8{fill:#6B4B2C;}
</style>
<g id="Layer_2">
	<circle class="st0" cx="128" cy="271.7" r="96.4"/>
</g>
<g id="Layer_4">
	<polyline class="st1" points="84.6,185.6 128,271.7 171.4,185.6 128,185.6 84.6,185.6 	"/>
	<path class="st2" d="M139.1,206.8c2.3-2.3,0.7-6.1-2.5-6.1H128h-8.6c-3.2,0-4.8,3.9-2.5,6.1l7.2,7.2c0.8,0.8,1.2,1.9,1,3.1
		l-7.6,50.5c-0.3,2.2,1.4,4.1,3.5,4.1h7h0.1h7c2.2,0,3.9-2,3.5-4.1l-7.6-50.5c-0.2-1.1,0.2-2.3,1-3.1L139.1,206.8z"/>
</g>
<g id="Layer_5">
</g>
<g id="Layer_1">
	<path class="st3" d="M67.6,83.3v43v17.4c0,33.3,27,60.4,60.4,60.4s60.4-27,60.4-60.4V83.3H67.6z"/>
</g>
<g id="Layer_6">
	<path class="st4" d="M133.1,166.7h-10.3c-1.5,0-2.7-1.2-2.7-2.7l3.4-28.1c0-1.5,0.7-2.7,1.5-2.7h5.8c0.8,0,1.5,1.2,1.5,2.7
		l3.4,28.1C135.8,165.5,134.6,166.7,133.1,166.7z"/>
</g>
<g id="Layer_7">
	<g>
		<path class="st5" d="M105.6,177.9c12.6-1.1,12.6-1.1,22.4-1.1c9.8,0,9.8,0,22.4,1.1"/>
	</g>
</g>
<g id="Layer_10">
	<g>
		<path class="st6" d="M141.7,145.6c1.3,6.1,6.9,10.6,13.7,10.6c6.8,0,12.4-4.6,13.7-10.6"/>
	</g>
	<g>
		<path class="st6" d="M86.8,145.6c1.3,6.1,6.9,10.6,13.7,10.6s12.4-4.6,13.7-10.6"/>
	</g>
</g>
<g id="Layer_8">
	<path class="st1" d="M155.4,156.2L155.4,156.2c-7.8,0-14.2-6.4-14.2-14.2v-12.8c0-7.8,6.4-14.2,14.2-14.2h0
		c7.8,0,14.2,6.4,14.2,14.2V142C169.6,149.9,163.2,156.2,155.4,156.2z"/>
	<path class="st7" d="M150,146.3L150,146.3c-2.4,0-4.4-2-4.4-4.4v-13c0-2.4,2-4.4,4.4-4.4h0c2.4,0,4.4,2,4.4,4.4v13
		C154.5,144.4,152.5,146.3,150,146.3z"/>
	<path class="st1" d="M100.6,156.2L100.6,156.2c7.8,0,14.2-6.4,14.2-14.2v-12.8c0-7.8-6.4-14.2-14.2-14.2h0
		c-7.8,0-14.2,6.4-14.2,14.2V142C86.3,149.9,92.7,156.2,100.6,156.2z"/>
	<path class="st7" d="M105.6,146.3L105.6,146.3c-2.4,0-4.4-2-4.4-4.4v-13c0-2.4,2-4.4,4.4-4.4h0c2.4,0,4.4,2,4.4,4.4v13
		C110,144.4,108,146.3,105.6,146.3z"/>
	<rect x="83.4" y="113.5" class="st3" width="91.1" height="18.7"/>
</g>
<g id="Layer_9">
	<path class="st8" d="M83.4,48.4c0,0,13-11.4,13.1-17.1S94.3,19,94.3,19c5.4,0.8,5.4,0.8,9.5,3.6s8.7,7.6,7.1,15.2
		C109.3,45.6,97.5,52.5,83.4,48.4z"/>
	<path class="st8" d="M70.9,67.8c0,0-7.9-4.7-9.4-6.8C60,59,58.9,51,58.9,51s1.5,2,2.8,2.7c1.3,0.8,5.3-4,5.3-4L70.9,67.8z"/>
	<path class="st8" d="M188.4,92.8c0,0,6,2.1,12.5,0.1c6.6-1.9,9.8-8.4,9.8-8.4s0.3,0.5-5.6-0.6c-5.9-1.2-4.6-5.6-4.6-5.6L188.4,92.8
		z"/>
	<path class="st8" d="M198.9,101.6c0,0,3.8,5,4,11.9c0.2,6.8-4.9,11.9-4.9,11.9s0.6,0.1-2.4-5.1c-3-5.3-6.8-2.7-6.8-2.7L198.9,101.6
		z"/>
	<path class="st8" d="M97.1,81.8c0,0-12.6,11.8-12.6,17.5c0,5.7,2.6,12.2,2.6,12.2c-5.4-0.6-5.4-0.6-9.6-3.3
		c-4.1-2.6-8.9-7.4-7.6-15C71.4,85.4,83,78.1,97.1,81.8z"/>
	<path class="st8" d="M78.4,88.3c0,0-17-2.8-21.5,0.6c-4.5,3.4-8.1,9.5-8.1,9.5c-2.8-4.7-2.8-4.7-3.2-9.6s0.4-11.5,7.3-15.1
		C59.9,70.1,72.8,74.9,78.4,88.3z"/>
	<path class="st8" d="M195.7,58.6c0,0-22.5-6.7-26.1-12.6S165,32.1,165,32.1c-6.1,3.1-6.1,3.1-9.4,7.6s-6,11.6,0.4,18.9
		C162.7,66.2,181.1,68.6,195.7,58.6z"/>
</g>
<g id="Layer_3">
	<path class="st8" d="M161.9,48c12.9,5.2,24.5-7.3,38.9,5.1c10.6,9.1,5.2,30.2,1.6,40.2c-4.5,13.5-14.1,42.4-14.1,42.4v-14.3
		c-2-26-30.8-26.1-30.8-26.1s-21.4,10.1-29.6,10.1S98.5,95.2,98.5,95.2s-30.9,0.1-30.9,29.1v11.4c0,0-9.6-36.4-12.8-43.1
		s-6-12.7-3-18.2s9.5-8.5,9.5-8.5s0.3-7.4,1.5-15c1.3-7.6,15.5-16.5,29.3-16.5S149,42.8,161.9,48z"/>
</g>
</svg>
