<?xml version="1.0" encoding="utf-8"?>
<!-- Generator: Adobe Illustrator 24.1.1, SVG Export Plug-In . SVG Version: 6.00 Build 0)  -->
<svg version="1.1" xmlns="http://www.w3.org/2000/svg" xmlns:xlink="http://www.w3.org/1999/xlink" x="0px" y="0px"
	 viewBox="0 0 256 256" style="enable-background:new 0 0 256 256;" xml:space="preserve">
<style type="text/css">
	.st0{fill:#386B95;}
	.st1{fill:#FFFFFF;}
	.st2{fill:#ED1C24;}
	.st3{fill:#FFD8BF;}
	.st4{fill:#FFA88F;}
	.st5{fill:none;stroke:#FFA88F;stroke-width:6;stroke-linecap:round;stroke-miterlimit:10;}
	.st6{fill:#52362D;}
	.st7{fill:#6B4B2C;}
</style>
<g id="Layer_2">
	<circle class="st0" cx="128" cy="271.7" r="96.4"/>
</g>
<g id="Layer_4">
	<polyline class="st1" points="84.6,185.6 128,271.7 171.4,185.6 128,185.6 84.6,185.6 	"/>
	<path class="st2" d="M139.1,206.8c2.3-2.3,0.7-6.1-2.5-6.1H128h-8.6c-3.2,0-4.8,3.9-2.5,6.1l7.2,7.2c0.8,0.8,1.2,1.9,1,3.1
		l-7.6,50.5c-0.3,2.2,1.4,4.1,3.5,4.1h7h0.1h7c2.2,0,3.9-2,3.5-4.1l-7.6-50.5c-0.2-1.1,0.2-2.3,1-3.1L139.1,206.8z"/>
</g>
<g id="Layer_5">
</g>
<g id="Layer_1">
	<path class="st3" d="M67.6,83.3v43v17.4c0,33.3,27,60.4,60.4,60.4s60.4-27,60.4-60.4V83.3H67.6z"/>
</g>
<g id="Layer_6">
	<path class="st4" d="M133.1,166.7h-10.3c-1.5,0-2.7-1.2-2.7-2.7l3.4-28.1c0-1.5,0.7-2.7,1.5-2.7h5.8c0.8,0,1.5,1.2,1.5,2.7
		l3.4,28.1C135.8,165.5,134.6,166.7,133.1,166.7z"/>
</g>
<g id="Layer_7">
	<g>
		<path class="st5" d="M105.6,176.8c22.4,0,12.6,0,22.4,0c9.8,0,1,0,22.4,0"/>
	</g>
</g>
<g id="Layer_8">
	<path class="st1" d="M155.4,156.2L155.4,156.2c-7.8,0-14.2-6.4-14.2-14.2v-12.8c0-7.8,6.4-14.2,14.2-14.2h0
		c7.8,0,14.2,6.4,14.2,14.2V142C169.6,149.9,163.2,156.2,155.4,156.2z"/>
	<path class="st6" d="M152,148.9L152,148.9c-3.5,0-6.4-2.9-6.4-6.4v-11.6c0-3.5,2.9-6.4,6.4-6.4h0c3.5,0,6.4,2.9,6.4,6.4v11.6
		C158.5,146,155.6,148.9,152,148.9z"/>
	<path class="st1" d="M100.6,156.2L100.6,156.2c7.8,0,14.2-6.4,14.2-14.2v-12.8c0-7.8-6.4-14.2-14.2-14.2h0
		c-7.8,0-14.2,6.4-14.2,14.2V142C86.3,149.9,92.7,156.2,100.6,156.2z"/>
	<path class="st6" d="M103.9,148.9L103.9,148.9c3.5,0,6.4-2.9,6.4-6.4v-11.6c0-3.5-2.9-6.4-6.4-6.4h0c-3.5,0-6.4,2.9-6.4,6.4v11.6
		C97.5,146,100.4,148.9,103.9,148.9z"/>
	<rect x="83.4" y="112.5" class="st3" width="91.1" height="15.5"/>
</g>
<g id="Layer_9">
	<path class="st7" d="M120.7,36.1c0,0,17.2-1.5,20.7-6s5.4-11.3,5.4-11.3c3.9,3.9,3.9,3.9,5.5,8.5s2.5,11.3-3.3,16.5
		C143.1,49.1,129.5,47.7,120.7,36.1z"/>
	<path class="st7" d="M70.9,67.8c0,0-7.9-4.7-9.4-6.8C60,59,58.9,51,58.9,51s1.5,2,2.8,2.7c1.3,0.8,5.3-4,5.3-4L70.9,67.8z"/>
	<path class="st7" d="M196,111.8c0,0,4.6-2.2,7.3-7.1s0.9-10.4,0.9-10.4s0.5,0.1-3.6,2.8c-4.1,2.7-5.9-0.6-5.9-0.6L196,111.8z"/>
</g>
<g id="Layer_3">
	<path class="st7" d="M159.8,40c12.9,5.2,43.6,6.9,45.1,24.3c1.1,19,1.1,19-2.4,28.9c-4.5,13.5-14.1,42.4-14.1,42.4v-14.3
		c-2-26-30.8-26.1-30.8-26.1s-21.4,10.1-29.6,10.1S98.5,95.2,98.5,95.2s-30.9,0.1-30.9,29.1v11.4c0,0-9.6-36.4-12.8-43.1
		s-3.2-6.7-0.1-12.1s4.5-9.1,7.2-10.6c2.7-1.5,7.1,0,7.1,0s-7.3-11.4-6.1-18.9c1.3-7.6,14-22.7,27.8-22.7S146.9,34.9,159.8,40z"/>
</g>
</svg>
