<?xml version="1.0" encoding="utf-8"?>
<!-- Generator: Adobe Illustrator 24.1.1, SVG Export Plug-In . SVG Version: 6.00 Build 0)  -->
<svg version="1.1" xmlns="http://www.w3.org/2000/svg" xmlns:xlink="http://www.w3.org/1999/xlink" x="0px" y="0px"
	 viewBox="0 0 64 64" style="enable-background:new 0 0 64 64;" xml:space="preserve">
<style type="text/css">
	.st0{fill:#FEE361;}
	.st1{fill:#FFF0BA;}
	.st2{display:none;}
	.st3{display:inline;}
	.st4{fill:#A2BBD4;}
	.st5{fill:#8D9FC7;}
	.st6{display:inline;fill:#8D9FC7;}
</style>
<g id="Sun">
	<g>
		<circle class="st0" cx="32" cy="32" r="28"/>
		<path class="st1" d="M32,8c13.2,0,24,10.8,24,24S45.2,56,32,56S8,45.2,8,32S18.8,8,32,8 M32,0C14.3,0,0,14.3,0,32s14.3,32,32,32
			s32-14.3,32-32S49.7,0,32,0L32,0z"/>
	</g>
</g>
<g id="Moon" class="st2">
	<g class="st3">
		<circle class="st4" cx="32" cy="32" r="32"/>
	</g>
	<g class="st3">
		<path class="st5" d="M44.8,2.7c4.7,5.3,7.7,12.2,8.1,19.8c2.1,1.2,3.9,3.3,4.6,5.6c1.1,3.7-0.9,6.8-4.6,6.8
			c-0.6,0-1.2-0.1-1.8-0.2C46.7,47.1,34.8,56,20.9,56c-4.6,0-8.9-1-12.8-2.7C14,59.9,22.5,64,32,64c17.7,0,32-14.3,32-32
			C64,18.9,56.1,7.6,44.8,2.7z"/>
	</g>
	<ellipse transform="matrix(0.7711 -0.6367 0.6367 0.7711 -3.4604 16.3433)" class="st6" cx="21" cy="13" rx="8" ry="5.3"/>
	<ellipse transform="matrix(0.7341 -0.679 0.679 0.7341 -27.9242 19.9069)" class="st6" cx="11.5" cy="45.6" rx="3.6" ry="6.6"/>
	<ellipse class="st6" cx="39" cy="39.7" rx="4.3" ry="4.8"/>
</g>
</svg>
